#N canvas 1 1 1920 997 12;
#X obj 479 227 netreceive -u -b;
#X obj 479 251 oscparse;
#X obj 479 274 list trim;
#X obj 879 383 route toggle1 toggle2 toggle3;
#X obj 1360 365 route slider1 slider2 slider3 slider4;
#X obj 946 437 tgl 19 0 empty empty empty 0 -10 0 12 #fcfcfc #000000 #000000 0 1;
#X floatatom 1319 404 5 0 0 0 - - - 0;
#X floatatom 1390 405 5 0 0 0 - - - 0;
#X floatatom 1462 408 5 0 0 0 - - - 0;
#X floatatom 1542 412 5 0 0 0 - - - 0;
#X obj 480 116 bng 19 250 50 0 empty empty empty 0 -10 0 12 #fcfcfc #000000 #000000;
#X msg 479 170 listen 6000;
#X obj 479 352 route button1 button2 button3;
#X obj 479 398 bng 19 250 50 0 empty empty empty 0 -10 0 12 #fcfcfc #000000 #000000;
#X obj 545 398 bng 19 250 50 0 empty empty empty 0 -10 0 12 #fcfcfc #000000 #000000;
#X obj 625 413 bng 19 250 50 0 empty empty empty 0 -10 0 12 #fcfcfc #000000 #000000;
#X obj 879 436 tgl 19 0 empty empty empty 0 -10 0 12 #fcfcfc #000000 #000000 0 1;
#X obj 1012 438 tgl 19 0 empty empty empty 0 -10 0 12 #fcfcfc #000000 #000000 0 1;
#X obj 1740 496 route slider2Dx slider2Dy;
#X floatatom 1745 539 5 0 0 0 Delay_Vol - - 0;
#X floatatom 1833 573 5 0 0 0 Delay_FeedBack - - 0;
#X msg 419 432 0 \, 1 200;
#X obj 419 461 line~;
#X obj 419 569 -~ 0.25;
#X obj 419 598 cos~;
#X obj 419 666 throw~ \$0-output;
#X obj 419 529 *~ 20;
#X obj 419 495 sqrt~;
#X obj 419 632 lop~ 1000;
#X obj 421 729 catch~ \$0-output;
#X obj 421 807 dac~ 1 2;
#X obj 421 773 /~ 5;
#X obj 551 452 t b b;
#X msg 551 481 1 \, 0 100;
#X obj 551 510 line~;
#X obj 551 539 pow~ 4;
#X obj 551 568 *~;
#X obj 694 511 line~;
#X obj 694 540 pow~ 4;
#X obj 694 569 *~;
#X obj 761 565 noise~;
#X msg 694 482 1 \, 0 200;
#X obj 551 597 +~;
#X obj 551 660 throw~ \$0-output;
#X obj 760 594 hip~ 3000;
#X obj 760 626 bp~ 5000 2;
#X obj 551 626 lop~ 4000;
#X obj 699 190 line~;
#X obj 699 219 pow~ 4;
#X obj 699 248 *~;
#X obj 826 224 hip~ 8000;
#X obj 826 195 hip~ 8000;
#X obj 699 311 throw~ \$0-output;
#X msg 699 161 1 \, 0 100;
#X obj 625 544 osc~ 200;
#X obj 1235 519 1 \, 0 200;
#X obj 1233 558 line~;
#X obj 480 322 route jm;
#X obj 1241 692 dac~;
#X obj 1285 474 *;
#X floatatom 1250 434 5 0 50000 0 - - - 0;
#X obj 1230 626 *~;
#X obj 1322 511 osc~;
#X obj 1911 584 route gridToggle1;
#X obj 1904 627 tgl 19 0 empty empty empty 0 -10 0 12 #fcfcfc #000000 #000000 0 1;
#X obj 1922 726 *~;
#X obj 1873 877 dac~;
#X obj 1622 913 delwrite~ audio-buffer 5000;
#X obj 1883 785 *~;
#X obj 1931 674 adc~;
#X obj 1713 635 delread~ audio-buffer 0;
#X obj 1732 689 *~;
#X obj 1723 737 dac~;
#X obj 1617 602 *~;
#X obj 1608 767 send~ feedback-sig;
#X obj 1495 820 receive~ feedback-sig;
#X obj 2040 769 *;
#X floatatom 2041 670 5 0 0 0 - - - 0;
#X floatatom 2040 793 5 0 0 0 - - - 0;
#X obj 1155 408 *;
#X floatatom 1154 444 5 0 0 0 - - - 0;
#X floatatom 1011 480 5 0 0 0 - - - 0;
#X obj 1757 125 bng 19 250 50 0 empty empty empty 0 -10 0 12 #fcfcfc #000000 #000000;
#X msg 1811 291 127;
#X obj 1826 122 bng 19 250 50 0 empty empty empty 0 -10 0 12 #fcfcfc #000000 #000000;
#X obj 1914 123 bng 19 250 50 0 empty empty empty 0 -10 0 12 #fcfcfc #000000 #000000;
#X obj 2008 123 bng 19 250 50 0 empty empty empty 0 -10 0 12 #fcfcfc #000000 #000000;
#X msg 1780 128 71;
#X msg 1850 124 72;
#X msg 1944 124 76;
#X obj 1732 78 route gridButton1 gridButton2 gridButton3 gridButton4 gridButton5, f 65;
#X obj 2095 120 bng 19 250 50 0 empty empty empty 0 -10 0 12 #fcfcfc #000000 #000000;
#X msg 2035 125 79;
#X msg 2130 116 81;
#N canvas 0 44 1920 997 noteout 0;
#X obj 188 129 inlet;
#X obj 285 141 inlet;
#X obj 364 143 inlet;
#X obj 237 262 makenote;
#X obj 245 315 noteout;
#X connect 0 0 3 0;
#X connect 1 0 3 1;
#X connect 2 0 3 2;
#X connect 3 0 4 0;
#X connect 3 1 4 1;
#X restore 1949 370 pd noteout;
#X msg 2120 334 500;
#X floatatom 865 673 5 0 0 0 - - - 0;
#X obj 947 610 makenote;
#X obj 951 741 noteout;
#X msg 1009 559 500;
#X obj 886 590 + 60;
#X obj 870 550 random 12;
#X text 1737 47 B4 C5 E5 G5 A5;
#X text 427 386 Bombo;
#X text 519 379 Tom;
#X text 793 419 Ritmo Piano;
#X text 1545 428 Toggle3 Vol;
#X text 1674 74 Piano;
#X obj 844 504 metro 500;
#X msg 958 551 60;
#X text 1029 419 Bajo;
#X text 1289 420 Toggle3 Frec;
#X obj 826 166 noise~;
#X obj 1023 144 bng 19 250 50 0 empty empty empty 0 -10 0 12 #fcfcfc #000000 #000000;
#X obj 1114 141 bng 19 250 50 0 empty empty empty 0 -10 0 12 #fcfcfc #000000 #000000;
#X obj 1202 142 bng 19 250 50 0 empty empty empty 0 -10 0 12 #fcfcfc #000000 #000000;
#X obj 1296 142 bng 19 250 50 0 empty empty empty 0 -10 0 12 #fcfcfc #000000 #000000;
#X msg 1138 143 72;
#X msg 1232 143 76;
#X obj 1390 145 bng 19 250 50 0 empty empty empty 0 -10 0 12 #fcfcfc #000000 #000000;
#X msg 1323 144 79;
#X msg 1424 141 81;
#N canvas 0 44 1920 997 noteout 0;
#X obj 188 129 inlet;
#X obj 285 141 inlet;
#X obj 364 143 inlet;
#X obj 237 262 makenote;
#X obj 245 315 noteout;
#X connect 0 0 3 0;
#X connect 1 0 3 1;
#X connect 2 0 3 2;
#X connect 3 0 4 0;
#X connect 3 1 4 1;
#X restore 1174 341 pd noteout;
#X msg 1239 276 500;
#X obj 1290 304 pgmout;
#X floatatom 1290 275 5 0 0 0 - - - 0;
#X obj 1292 244 12;
#X msg 1191 279 200;
#X msg 1049 144 71;
#X obj 1477 171 bng 19 250 50 0 empty empty empty 0 -10 0 12 #fcfcfc #000000 #000000;
#X obj 1486 302 pgmout;
#X floatatom 1486 273 5 0 0 0 - - - 0;
#X obj 1488 242 0;
#X obj 997 89 route gridButton6 gridButton7 gridButton8 gridButton9 gridButton10 gridButton11 gridButton12, f 82;
#X obj 1565 175 bng 19 250 50 0 empty empty empty 0 -10 0 12 #fcfcfc #000000 #000000;
#X obj 1574 306 pgmout;
#X floatatom 1574 277 5 0 0 0 - - - 0;
#X obj 1576 246 12;
#X text 999 63 Xilofono;
#X text 1371 436 Delay_Time;
#X text 1466 439 Gain;
#X obj 1240 390 + 499;
#X obj 2114 529 pgmout;
#X floatatom 2112 469 5 0 0 0 - - - 0;
#X obj 2108 424 0;
#X obj 1046 711 pgmout;
#X floatatom 1044 674 5 0 0 0 - - - 0;
#X obj 1041 623 0;
#X text 646 405 HiHat;
#X connect 0 0 1 0;
#X connect 1 0 2 0;
#X connect 2 0 57 0;
#X connect 3 0 16 0;
#X connect 3 1 5 0;
#X connect 3 2 17 0;
#X connect 3 3 4 0;
#X connect 4 0 6 0;
#X connect 4 1 7 0;
#X connect 4 2 8 0;
#X connect 4 3 9 0;
#X connect 4 4 18 0;
#X connect 6 0 79 1;
#X connect 7 0 70 0;
#X connect 8 0 76 1;
#X connect 9 0 61 1;
#X connect 10 0 11 0;
#X connect 11 0 0 0;
#X connect 12 0 13 0;
#X connect 12 1 14 0;
#X connect 12 2 15 0;
#X connect 12 3 3 0;
#X connect 13 0 21 0;
#X connect 14 0 32 0;
#X connect 15 0 53 0;
#X connect 16 0 99 0;
#X connect 16 0 109 0;
#X connect 16 0 108 0;
#X connect 16 0 147 0;
#X connect 17 0 55 0;
#X connect 17 0 79 0;
#X connect 17 0 81 0;
#X connect 17 0 141 0;
#X connect 18 0 19 0;
#X connect 18 1 20 0;
#X connect 18 2 63 0;
#X connect 19 0 71 1;
#X connect 20 0 73 1;
#X connect 21 0 22 0;
#X connect 22 0 27 0;
#X connect 23 0 24 0;
#X connect 24 0 28 0;
#X connect 26 0 23 0;
#X connect 27 0 26 0;
#X connect 28 0 25 0;
#X connect 29 0 31 0;
#X connect 31 0 30 0;
#X connect 31 0 30 1;
#X connect 32 0 33 0;
#X connect 32 1 41 0;
#X connect 33 0 34 0;
#X connect 34 0 35 0;
#X connect 35 0 36 0;
#X connect 36 0 42 0;
#X connect 37 0 38 0;
#X connect 38 0 39 0;
#X connect 39 0 42 1;
#X connect 40 0 44 0;
#X connect 41 0 37 0;
#X connect 42 0 46 0;
#X connect 44 0 45 0;
#X connect 45 0 39 1;
#X connect 46 0 43 0;
#X connect 47 0 48 0;
#X connect 48 0 49 0;
#X connect 49 0 52 0;
#X connect 50 0 49 1;
#X connect 51 0 50 0;
#X connect 53 0 47 0;
#X connect 54 0 36 1;
#X connect 55 0 56 0;
#X connect 56 0 61 0;
#X connect 57 0 12 0;
#X connect 59 0 62 0;
#X connect 60 0 59 1;
#X connect 61 0 58 0;
#X connect 61 0 58 1;
#X connect 62 0 61 0;
#X connect 63 0 64 0;
#X connect 63 1 90 0;
#X connect 64 0 77 0;
#X connect 65 0 67 0;
#X connect 65 0 68 0;
#X connect 68 0 66 0;
#X connect 68 0 66 1;
#X connect 69 0 65 0;
#X connect 70 0 71 0;
#X connect 70 0 73 0;
#X connect 71 0 72 0;
#X connect 71 0 72 1;
#X connect 73 0 74 0;
#X connect 75 0 67 0;
#X connect 76 0 65 1;
#X connect 76 0 78 0;
#X connect 77 0 76 0;
#X connect 79 0 80 0;
#X connect 80 0 59 0;
#X connect 82 0 87 0;
#X connect 82 0 83 0;
#X connect 82 0 95 0;
#X connect 82 0 144 0;
#X connect 83 0 94 1;
#X connect 84 0 83 0;
#X connect 84 0 95 0;
#X connect 84 0 88 0;
#X connect 84 0 144 0;
#X connect 85 0 89 0;
#X connect 85 0 83 0;
#X connect 85 0 95 0;
#X connect 85 0 144 0;
#X connect 86 0 83 0;
#X connect 86 0 95 0;
#X connect 86 0 92 0;
#X connect 86 0 144 0;
#X connect 87 0 94 0;
#X connect 88 0 94 0;
#X connect 89 0 94 0;
#X connect 90 0 82 0;
#X connect 90 1 84 0;
#X connect 90 2 85 0;
#X connect 90 3 86 0;
#X connect 90 4 91 0;
#X connect 90 5 133 0;
#X connect 91 0 93 0;
#X connect 91 0 83 0;
#X connect 91 0 95 0;
#X connect 91 0 144 0;
#X connect 92 0 94 0;
#X connect 93 0 94 0;
#X connect 95 0 94 2;
#X connect 97 0 98 0;
#X connect 97 1 98 1;
#X connect 99 0 97 2;
#X connect 100 0 96 0;
#X connect 100 0 97 0;
#X connect 101 0 100 0;
#X connect 108 0 101 0;
#X connect 109 0 97 1;
#X connect 112 0 51 0;
#X connect 113 0 128 0;
#X connect 113 0 122 0;
#X connect 113 0 127 0;
#X connect 113 0 126 0;
#X connect 113 0 123 0;
#X connect 114 0 117 0;
#X connect 114 0 122 0;
#X connect 114 0 127 0;
#X connect 114 0 123 0;
#X connect 114 0 126 0;
#X connect 115 0 118 0;
#X connect 115 0 122 0;
#X connect 115 0 127 0;
#X connect 115 0 123 0;
#X connect 115 0 126 0;
#X connect 116 0 120 0;
#X connect 116 0 122 0;
#X connect 116 0 127 0;
#X connect 116 0 123 0;
#X connect 116 0 126 0;
#X connect 117 0 122 0;
#X connect 118 0 122 0;
#X connect 119 0 121 0;
#X connect 119 0 122 0;
#X connect 119 0 127 0;
#X connect 119 0 123 0;
#X connect 119 0 126 0;
#X connect 120 0 122 0;
#X connect 121 0 122 0;
#X connect 123 0 122 2;
#X connect 125 0 124 0;
#X connect 126 0 125 0;
#X connect 127 0 122 1;
#X connect 128 0 122 0;
#X connect 129 0 132 0;
#X connect 131 0 130 0;
#X connect 132 0 131 0;
#X connect 133 0 113 0;
#X connect 133 1 114 0;
#X connect 133 2 115 0;
#X connect 133 3 116 0;
#X connect 133 4 119 0;
#X connect 133 5 129 0;
#X connect 133 6 134 0;
#X connect 134 0 137 0;
#X connect 136 0 135 0;
#X connect 137 0 136 0;
#X connect 141 0 60 0;
#X connect 143 0 142 0;
#X connect 144 0 143 0;
#X connect 146 0 145 0;
#X connect 147 0 146 0;
